<?xml version="1.0" encoding="utf-8"?>

<!DOCTYPE svg PUBLIC "-//W3C//DTD SVG 1.1//EN" "http://www.w3.org/Graphics/SVG/1.1/DTD/svg11.dtd">
<!-- Uploaded to: SVG Repo, www.svgrepo.com, Generator: SVG Repo Mixer Tools -->
<svg height="800px" width="800px" version="1.1" id="_x32_" xmlns="http://www.w3.org/2000/svg" xmlns:xlink="http://www.w3.org/1999/xlink" 
	 viewBox="0 0 512 512"  xml:space="preserve">
<style type="text/css">
	.st0{fill:#c8c8c8;}
</style>
<g>
	<path class="st0" d="M96.193,446.697H8.948C4,446.697,0,450.698,0,455.638v37.38c0,4.94,4,8.94,8.948,8.94h87.244
		c4.94,0,8.948-4.001,8.948-8.94v-37.38C105.141,450.698,101.132,446.697,96.193,446.697z"/>
	<path class="st0" d="M96.193,359.366H8.948C4,359.366,0,363.374,0,368.307v37.38c0,4.941,4,8.949,8.948,8.949h87.244
		c4.94,0,8.948-4.008,8.948-8.949v-37.38C105.141,363.374,101.132,359.366,96.193,359.366z"/>
	<path class="st0" d="M96.193,272.035H8.948C4,272.035,0,276.036,0,280.968v37.396c0,4.94,4,8.94,8.948,8.94h87.244
		c4.94,0,8.948-4.001,8.948-8.94v-37.396C105.141,276.036,101.132,272.035,96.193,272.035z"/>
	<path class="st0" d="M231.818,446.697h-87.253c-4.94,0-8.948,4.002-8.948,8.941v37.38c0,4.94,4.009,8.94,8.948,8.94h87.253
		c4.931,0,8.94-4.001,8.94-8.94v-37.38C240.758,450.698,236.749,446.697,231.818,446.697z"/>
	<path class="st0" d="M231.818,359.366h-87.253c-4.94,0-8.948,4.008-8.948,8.941v37.38c0,4.941,4.009,8.949,8.948,8.949h87.253
		c4.931,0,8.94-4.008,8.94-8.949v-37.38C240.758,363.374,236.749,359.366,231.818,359.366z"/>
	<path class="st0" d="M231.818,272.035h-87.253c-4.94,0-8.948,4.001-8.948,8.933v37.396c0,4.94,4.009,8.94,8.948,8.94h87.253
		c4.931,0,8.94-4.001,8.94-8.94v-37.396C240.758,276.036,236.749,272.035,231.818,272.035z"/>
	<path class="st0" d="M231.818,184.704h-87.253c-4.94,0-8.948,4-8.948,8.94v37.389c0,4.94,4.009,8.932,8.948,8.932h87.253
		c4.931,0,8.94-3.992,8.94-8.932v-37.389C240.758,188.704,236.749,184.704,231.818,184.704z"/>
	<path class="st0" d="M231.818,97.373h-87.253c-4.94,0-8.948,4.009-8.948,8.94v37.388c0,4.94,4.009,8.94,8.948,8.94h87.253
		c4.931,0,8.94-4.001,8.94-8.94v-37.388C240.758,101.382,236.749,97.373,231.818,97.373z"/>
	<path class="st0" d="M231.818,10.041h-87.253c-4.94,0-8.948,4.001-8.948,8.949v37.38c0,4.932,4.009,8.941,8.948,8.941h87.253
		c4.931,0,8.94-4.008,8.94-8.941V18.99C240.758,14.042,236.749,10.041,231.818,10.041z"/>
	<path class="st0" d="M367.435,446.697h-87.253c-4.931,0-8.94,4.002-8.94,8.941v37.38c0,4.94,4.009,8.94,8.94,8.94h87.253
		c4.932,0,8.948-4.001,8.948-8.94v-37.38C376.383,450.698,372.366,446.697,367.435,446.697z"/>
	<path class="st0" d="M367.435,359.366h-87.253c-4.931,0-8.94,4.008-8.94,8.941v37.38c0,4.941,4.009,8.949,8.94,8.949h87.253
		c4.932,0,8.948-4.008,8.948-8.949v-37.38C376.383,363.374,372.366,359.366,367.435,359.366z"/>
	<path class="st0" d="M367.435,272.035h-87.253c-4.931,0-8.94,4.001-8.94,8.933v37.396c0,4.94,4.009,8.94,8.94,8.94h87.253
		c4.932,0,8.948-4.001,8.948-8.94v-37.396C376.383,276.036,372.366,272.035,367.435,272.035z"/>
	<path class="st0" d="M367.435,184.704h-87.253c-4.931,0-8.94,4-8.94,8.94v37.389c0,4.94,4.009,8.932,8.94,8.932h87.253
		c4.932,0,8.948-3.992,8.948-8.932v-37.389C376.383,188.704,372.366,184.704,367.435,184.704z"/>
	<path class="st0" d="M503.052,446.697h-87.244c-4.94,0-8.948,4.002-8.948,8.941v37.38c0,4.94,4.009,8.94,8.948,8.94h87.244
		c4.94,0,8.948-4.001,8.948-8.94v-37.38C512,450.698,507.991,446.697,503.052,446.697z"/>
	<path class="st0" d="M503.052,359.366h-87.244c-4.94,0-8.948,4.008-8.948,8.941v37.38c0,4.941,4.009,8.949,8.948,8.949h87.244
		c4.94,0,8.948-4.008,8.948-8.949v-37.38C512,363.374,507.991,359.366,503.052,359.366z"/>
	<path class="st0" d="M503.052,272.035h-87.244c-4.94,0-8.948,4.001-8.948,8.933v37.396c0,4.94,4.009,8.94,8.948,8.94h87.244
		c4.94,0,8.948-4.001,8.948-8.94v-37.396C512,276.036,507.991,272.035,503.052,272.035z"/>
	<path class="st0" d="M503.052,184.704h-87.244c-4.94,0-8.948,4-8.948,8.94v37.389c0,4.94,4.009,8.932,8.948,8.932h87.244
		c4.94,0,8.948-3.992,8.948-8.932v-37.389C512,188.704,507.991,184.704,503.052,184.704z"/>
	<path class="st0" d="M503.052,97.373h-87.244c-4.94,0-8.948,4.009-8.948,8.94v37.388c0,4.94,4.009,8.94,8.948,8.94h87.244
		c4.94,0,8.948-4.001,8.948-8.94v-37.388C512,101.382,507.991,97.373,503.052,97.373z"/>
</g>
</svg>